<svg xmlns="http://www.w3.org/2000/svg" xmlns:xlink="http://www.w3.org/1999/xlink" width="500" zoomAndPan="magnify" viewBox="0 0 375 374.999991" height="500" preserveAspectRatio="xMidYMid meet" version="1.0"><defs><g/><clipPath id="5c8d631a34"><rect x="0" width="197" y="0" height="281"/></clipPath><clipPath id="12c12740e0"><path d="M 277.015625 121.9375 L 285.351562 121.9375 L 285.351562 129.246094 L 277.015625 129.246094 Z M 277.015625 121.9375 " clip-rule="nonzero"/></clipPath><clipPath id="bbd005ea3a"><path d="M 277.347656 123.128906 C 276.671875 124.238281 277.148438 125.320312 277.746094 125.894531 L 281.238281 129.246094 L 284.65625 125.90625 C 285.210938 125.289062 285.425781 124.632812 285.308594 123.90625 C 285.144531 122.894531 284.3125 122.113281 283.285156 122 C 282.65625 121.933594 282.046875 122.109375 281.570312 122.503906 C 281.441406 122.613281 281.328125 122.730469 281.230469 122.859375 C 281.109375 122.714844 280.972656 122.578125 280.816406 122.460938 C 280.269531 122.042969 279.574219 121.878906 278.90625 122.007812 C 278.273438 122.128906 277.703125 122.539062 277.347656 123.128906 Z M 277.347656 123.128906 " clip-rule="nonzero"/></clipPath><clipPath id="28867848e2"><path d="M 0.015625 0.9375 L 8.351562 0.9375 L 8.351562 8.246094 L 0.015625 8.246094 Z M 0.015625 0.9375 " clip-rule="nonzero"/></clipPath><clipPath id="05e2c9c960"><path d="M 0.347656 2.128906 C -0.328125 3.238281 0.148438 4.320312 0.746094 4.894531 L 4.238281 8.246094 L 7.65625 4.90625 C 8.210938 4.289062 8.425781 3.632812 8.308594 2.90625 C 8.144531 1.894531 7.3125 1.113281 6.285156 1 C 5.65625 0.933594 5.046875 1.109375 4.570312 1.503906 C 4.441406 1.613281 4.328125 1.730469 4.230469 1.859375 C 4.109375 1.714844 3.972656 1.578125 3.816406 1.460938 C 3.269531 1.042969 2.574219 0.878906 1.90625 1.007812 C 1.273438 1.128906 0.703125 1.539062 0.347656 2.128906 Z M 0.347656 2.128906 " clip-rule="nonzero"/></clipPath><clipPath id="7871b00709"><rect x="0" width="9" y="0" height="9"/></clipPath><clipPath id="28f139b3d2"><rect x="0" width="29" y="0" height="12"/></clipPath></defs><rect x="-37.5" width="450" fill="#ffffff" y="-37.499999" height="449.999989" fill-opacity="1"/><rect x="-37.5" width="450" fill="#222222" y="-37.499999" height="449.999989" fill-opacity="1"/><g transform="matrix(1, 0, 0, 1, 88, 31)"><g clip-path="url(#5c8d631a34)"><g fill="#ffffff" fill-opacity="1"><g transform="translate(0.700316, 227.882847)"><g><path d="M 70.09375 -136.65625 C 81.09375 -136.65625 90.648438 -134.945312 98.765625 -131.53125 C 106.878906 -128.125 113.15625 -122.984375 117.59375 -116.109375 C 122.03125 -109.242188 124.25 -100.691406 124.25 -90.453125 L 124.25 0 L 90.453125 0 L 90.453125 -13.875 C 82.410156 -7.425781 74.898438 -3.023438 67.921875 -0.671875 C 60.953125 1.671875 54.316406 2.84375 48.015625 2.84375 C 39.597656 2.84375 32.273438 1.363281 26.046875 -1.59375 C 19.828125 -4.550781 15.007812 -8.835938 11.59375 -14.453125 C 8.1875 -20.066406 6.484375 -26.816406 6.484375 -34.703125 C 6.484375 -41.222656 7.660156 -46.929688 10.015625 -51.828125 C 12.367188 -56.722656 15.664062 -60.988281 19.90625 -64.625 C 24.15625 -68.269531 29.160156 -71.421875 34.921875 -74.078125 C 40.691406 -76.734375 46.953125 -79.007812 53.703125 -80.90625 L 90.453125 -91.375 C 90.148438 -96.757812 88.117188 -100.875 84.359375 -103.71875 C 80.609375 -106.5625 75.472656 -107.984375 68.953125 -107.984375 C 63.867188 -107.984375 58.691406 -107.1875 53.421875 -105.59375 C 48.148438 -104 43.085938 -101.835938 38.234375 -99.109375 C 33.378906 -96.378906 29.09375 -93.269531 25.375 -89.78125 L 8.984375 -115.15625 C 18.242188 -122.664062 28.109375 -128.125 38.578125 -131.53125 C 49.046875 -134.945312 59.550781 -136.65625 70.09375 -136.65625 Z M 59.171875 -24.234375 C 64.484375 -24.234375 69.753906 -25.578125 74.984375 -28.265625 C 80.210938 -30.960938 85.367188 -34.515625 90.453125 -38.921875 L 90.453125 -63.953125 L 62.8125 -55.078125 C 56.59375 -53.097656 51.960938 -50.816406 48.921875 -48.234375 C 45.890625 -45.660156 44.375 -42.132812 44.375 -37.65625 C 44.375 -33.488281 45.679688 -30.207031 48.296875 -27.8125 C 50.921875 -25.425781 54.546875 -24.234375 59.171875 -24.234375 Z M 59.171875 -24.234375 "/></g></g></g><g fill="#ffffff" fill-opacity="1"><g transform="translate(122.852025, 227.882847)"><g><path d="M 23.4375 0 L 23.4375 -41.421875 L 64.515625 -41.421875 L 64.515625 0 Z M 23.4375 0 "/></g></g></g></g></g><g clip-path="url(#12c12740e0)"><g clip-path="url(#bbd005ea3a)"><g transform="matrix(1, 0, 0, 1, 277, 121)"><g clip-path="url(#7871b00709)"><g clip-path="url(#28867848e2)"><g clip-path="url(#05e2c9c960)"><path fill="#ec1c1f" d="M 0.015625 0.964844 L 8.351562 0.964844 L 8.351562 8.246094 L 0.015625 8.246094 Z M 0.015625 0.964844 " fill-opacity="1" fill-rule="nonzero"/></g></g></g></g></g></g><g transform="matrix(1, 0, 0, 1, 248, 120)"><g clip-path="url(#28f139b3d2)"><g fill="#ffffff" fill-opacity="1"><g transform="translate(1.150075, 9.164898)"><g><path d="M 0.71875 -5.71875 L 2.5 -5.71875 C 3.257812 -5.71875 3.832031 -5.609375 4.21875 -5.390625 C 4.613281 -5.179688 4.8125 -4.804688 4.8125 -4.265625 C 4.8125 -4.046875 4.773438 -3.847656 4.703125 -3.671875 C 4.640625 -3.503906 4.539062 -3.363281 4.40625 -3.25 C 4.28125 -3.132812 4.125 -3.0625 3.9375 -3.03125 L 3.9375 -3 C 4.125 -2.957031 4.289062 -2.890625 4.4375 -2.796875 C 4.59375 -2.703125 4.71875 -2.5625 4.8125 -2.375 C 4.90625 -2.195312 4.953125 -1.957031 4.953125 -1.65625 C 4.953125 -1.3125 4.867188 -1.015625 4.703125 -0.765625 C 4.535156 -0.515625 4.289062 -0.320312 3.96875 -0.1875 C 3.65625 -0.0625 3.285156 0 2.859375 0 L 0.71875 0 Z M 1.9375 -3.453125 L 2.640625 -3.453125 C 2.984375 -3.453125 3.222656 -3.503906 3.359375 -3.609375 C 3.492188 -3.722656 3.5625 -3.890625 3.5625 -4.109375 C 3.5625 -4.328125 3.484375 -4.484375 3.328125 -4.578125 C 3.171875 -4.671875 2.914062 -4.71875 2.5625 -4.71875 L 1.9375 -4.71875 Z M 1.9375 -2.484375 L 1.9375 -1 L 2.71875 -1 C 3.082031 -1 3.335938 -1.066406 3.484375 -1.203125 C 3.628906 -1.347656 3.703125 -1.539062 3.703125 -1.78125 C 3.703125 -1.914062 3.671875 -2.035156 3.609375 -2.140625 C 3.546875 -2.253906 3.4375 -2.335938 3.28125 -2.390625 C 3.132812 -2.453125 2.9375 -2.484375 2.6875 -2.484375 Z M 1.9375 -2.484375 "/></g></g></g><g fill="#ffffff" fill-opacity="1"><g transform="translate(6.133061, 9.164898)"><g><path d="M 4.015625 0 L 0.71875 0 L 0.71875 -5.71875 L 4.015625 -5.71875 L 4.015625 -4.71875 L 1.9375 -4.71875 L 1.9375 -3.46875 L 3.859375 -3.46875 L 3.859375 -2.46875 L 1.9375 -2.46875 L 1.9375 -1 L 4.015625 -1 Z M 4.015625 0 "/></g></g></g><g fill="#ffffff" fill-opacity="1"><g transform="translate(10.221518, 9.164898)"><g><path d="M 2.390625 -5.71875 C 2.898438 -5.71875 3.320312 -5.65625 3.65625 -5.53125 C 4 -5.40625 4.253906 -5.210938 4.421875 -4.953125 C 4.585938 -4.703125 4.671875 -4.382812 4.671875 -4 C 4.671875 -3.738281 4.617188 -3.507812 4.515625 -3.3125 C 4.421875 -3.125 4.289062 -2.960938 4.125 -2.828125 C 3.96875 -2.691406 3.796875 -2.578125 3.609375 -2.484375 L 5.28125 0 L 3.9375 0 L 2.578125 -2.1875 L 1.9375 -2.1875 L 1.9375 0 L 0.71875 0 L 0.71875 -5.71875 Z M 2.296875 -4.71875 L 1.9375 -4.71875 L 1.9375 -3.171875 L 2.328125 -3.171875 C 2.722656 -3.171875 3.003906 -3.238281 3.171875 -3.375 C 3.347656 -3.507812 3.4375 -3.707031 3.4375 -3.96875 C 3.4375 -4.238281 3.34375 -4.429688 3.15625 -4.546875 C 2.976562 -4.660156 2.691406 -4.71875 2.296875 -4.71875 Z M 2.296875 -4.71875 "/></g></g></g><g fill="#ffffff" fill-opacity="1"><g transform="translate(15.110755, 9.164898)"><g><path d="M 0.71875 0 L 0.71875 -5.71875 L 1.9375 -5.71875 L 1.9375 -1 L 4.25 -1 L 4.25 0 Z M 0.71875 0 "/></g></g></g><g fill="#ffffff" fill-opacity="1"><g transform="translate(19.238274, 9.164898)"><g><path d="M 0.71875 0 L 0.71875 -5.71875 L 1.9375 -5.71875 L 1.9375 0 Z M 0.71875 0 "/></g></g></g><g fill="#ffffff" fill-opacity="1"><g transform="translate(21.494706, 9.164898)"><g><path d="M 5.78125 0 L 4.25 0 L 1.765625 -4.328125 L 1.734375 -4.328125 C 1.742188 -4.140625 1.75 -3.953125 1.75 -3.765625 C 1.757812 -3.585938 1.769531 -3.410156 1.78125 -3.234375 C 1.789062 -3.054688 1.796875 -2.875 1.796875 -2.6875 L 1.796875 0 L 0.71875 0 L 0.71875 -5.71875 L 2.25 -5.71875 L 4.734375 -1.4375 L 4.75 -1.4375 C 4.75 -1.613281 4.742188 -1.785156 4.734375 -1.953125 C 4.722656 -2.128906 4.710938 -2.304688 4.703125 -2.484375 C 4.703125 -2.660156 4.703125 -2.835938 4.703125 -3.015625 L 4.703125 -5.71875 L 5.78125 -5.71875 Z M 5.78125 0 "/></g></g></g></g></g></svg>